<mxfile host="app.diagrams.net" modified="2024-03-04T11:31:13.714Z" agent="Mozilla/5.0 (Windows NT 10.0; Win64; x64) AppleWebKit/537.36 (KHTML, like Gecko) Chrome/122.0.0.0 Safari/537.36" version="23.1.0" etag="Ce8-47vCitIve_OiOKnS" type="github">
  <diagram name="Page-1" id="DIo8ns8iB6WkQZG_MXnH">
    <mxGraphModel>
      <root>
        <mxCell id="0" />
        <mxCell id="1" parent="0" />
      </root>
    </mxGraphModel>
  </diagram>
</mxfile>
